<svg width="273" height="273" viewBox="0 0 273 273" fill="none" xmlns="http://www.w3.org/2000/svg">
<path d="M136.5 4.36689L166.064 61.7502L166.839 63.255L168.451 62.7391L229.932 43.0678L210.261 104.549L209.745 106.161L211.25 106.936L268.633 136.5L211.25 166.064L209.745 166.839L210.261 168.451L229.932 229.932L168.451 210.261L166.839 209.745L166.064 211.25L136.5 268.633L106.936 211.25L106.161 209.745L104.549 210.261L43.0678 229.932L62.7391 168.451L63.255 166.839L61.7502 166.064L4.36689 136.5L61.7502 106.936L63.255 106.161L62.7391 104.549L43.0678 43.0678L104.549 62.7391L106.161 63.255L106.936 61.7502L136.5 4.36689Z" stroke="black" stroke-width="4"/>
</svg>
